<?xml version="1.0" encoding="UTF-8"?>
<svg id="Layer_2" data-name="Layer 2" xmlns="http://www.w3.org/2000/svg" viewBox="0 0 915.01 403.02">
  <defs>
    <style>
      .cls-1 {
        fill: #0071bc;
      }

      .cls-1, .cls-2, .cls-3 {
        stroke-width: 0px;
      }

      .cls-2 {
        fill: #29abe2;
      }

      .cls-3 {
        fill: #fff;
      }
    </style>
  </defs>
  <g id="Layer_1-2" data-name="Layer 1">
    <path class="cls-2" d="M302.87,378.89c-5.76,14.21-15.41,23.95-31.17,23.74-27.56,0-52.5.87-89.8,0-14.24.92-35.72-39.65-40.88-52.49L0,0c79.01.15,122.01.15,206.01.15l-36.7,53.59s36.34,107.6,53.24,156.46c.85,2.44,2.09,4.75,5.11,11.5l75.2,157.2Z"/>
    <path class="cls-1" d="M228.01,222.15l-13-32-36.4,78.71-37.6,81.29,16,39,70.65-167.45"/>
    <path class="cls-3" d="M227.66,221.69c13.31-35.95,23.94-65.7,35.33-95.17,12.74-32.99,34.86-93.55,48.02-126.37h129l-86,222-51.15,156.74c-5.76,14.21-15.41,23.95-31.17,23.74-27.56,0-52.5.87-89.8,0-14.24.92-19.72-.65-24.88-13.49l70.65-167.45Z"/>
    <g>
      <path class="cls-3" d="M524.53,247.93c-16.01,0-30.85-2.88-44.5-8.62-13.66-5.75-25.56-13.75-35.72-24.02-10.16-10.26-18.07-22.12-23.71-35.57-5.65-13.44-8.47-27.87-8.47-43.27s2.82-29.87,8.47-43.42c5.64-13.55,13.55-25.45,23.71-35.72,10.16-10.26,22.07-18.32,35.72-24.17,13.65-5.85,28.49-8.78,44.5-8.78s30.8,2.93,44.34,8.78c13.55,5.85,25.35,13.91,35.41,24.17,10.06,10.27,17.91,22.17,23.56,35.72,5.64,13.55,8.47,28.02,8.47,43.42s-2.82,29.82-8.47,43.27c-5.65,13.45-13.5,25.31-23.56,35.57-10.06,10.27-21.86,18.27-35.41,24.02-13.55,5.75-28.33,8.62-44.34,8.62ZM524.53,207.9c13.96,0,25.92-3.23,35.88-9.7,9.96-6.47,17.65-15.14,23.1-26.02,5.44-10.88,8.16-22.79,8.16-35.72s-2.72-25.15-8.16-36.03c-5.44-10.88-13.14-19.6-23.1-26.18-9.96-6.57-21.92-9.85-35.88-9.85s-26.02,3.29-36.18,9.85c-10.16,6.57-17.97,15.3-23.4,26.18-5.44,10.88-8.16,22.89-8.16,36.03s2.72,24.84,8.16,35.72c5.44,10.88,13.24,19.55,23.4,26.02,10.16,6.47,22.22,9.7,36.18,9.7Z"/>
      <path class="cls-3" d="M659.41,243.93V28.36h43.11v176.76h80.37v38.8h-123.49Z"/>
      <path class="cls-3" d="M810.31,243.93V67.16h-61.59V28.36h166.29v38.8h-61.59v176.76h-43.11Z"/>
    </g>
    <g>
      <path class="cls-3" d="M462,387.94l40.86-62.36-38.91-62.01h29.67l24.52,41.22,25.05-41.22h28.96l-38.91,62.54,40.86,61.83h-30.03l-25.94-41.4-26.65,41.4h-29.49Z"/>
      <path class="cls-3" d="M622.96,387.94l-49.57-124.37h28.78l28.43,79.06c1.89,5.21,3.38,10.42,4.44,15.63.59-2.6,1.24-5.24,1.95-7.91.71-2.67,1.54-5.24,2.49-7.73l28.43-79.06h28.25l-49.22,124.37h-23.99Z"/>
      <path class="cls-3" d="M702.03,387.94v-124.37h30.92l25.76,54.9c2.96,6.4,5.36,11.67,7.2,15.81,1.84,4.15,3.26,7.58,4.26,10.31,1,2.73,1.8,5.09,2.4,7.11.59-2.01,1.36-4.38,2.31-7.11.95-2.72,2.34-6.16,4.18-10.31,1.84-4.14,4.23-9.42,7.2-15.81l25.94-54.9h29.85v124.37h-24.34v-50.28c0-5.69.06-10.54.18-14.57.12-4.03.29-7.73.53-11.1.24-3.38.59-6.84,1.07-10.39l-41.4,86.35h-12.08l-41.4-86.35c.47,3.55.83,7.02,1.07,10.39.24,3.38.41,7.08.53,11.1.12,4.03.18,8.88.18,14.57v50.28h-24.34Z"/>
    </g>
  </g>
</svg>