<?xml version="1.0" encoding="UTF-8"?>
<svg id="Layer_2" data-name="Layer 2" xmlns="http://www.w3.org/2000/svg" viewBox="0 0 578 578">
  <defs>
    <style>
      .cls-1 {
        fill: #0071bc;
      }

      .cls-1, .cls-2, .cls-3, .cls-4 {
        stroke-width: 0px;
      }

      .cls-3 {
        fill: #29abe2;
      }

      .cls-4 {
        fill: #fff;
      }
    </style>
  </defs>
  <g id="Layer_1-2" data-name="Layer 1">
    <g>
      <path class="cls-3" d="M371.86,466.38c-5.76,14.21-15.41,23.95-31.17,23.74-27.56,0-52.5.87-89.8,0-14.24.92-35.72-39.65-40.88-52.49L68.99,87.49c79.01.15,122.01.15,206.01.15l-36.7,53.59s36.34,107.6,53.24,156.46c.85,2.44,2.09,4.75,5.11,11.5l75.2,157.2Z"/>
      <path class="cls-1" d="M297.01,309.64l-13-32-36.4,78.71-37.6,81.29,16,39,70.65-167.45"/>
      <path class="cls-4" d="M296.66,309.18c13.31-35.95,23.94-65.7,35.33-95.17,12.74-32.99,34.86-93.55,48.02-126.37h129l-86,222-51.15,156.74c-5.76,14.21-15.41,23.95-31.17,23.74-27.56,0-52.5.87-89.8,0-14.24.92-19.72-.65-24.88-13.49l70.65-167.45Z"/>
    </g>
  </g>
</svg>